<svg xmlns="http://www.w3.org/2000/svg" role="img" viewBox="36.74 383.74 949.52 255.52"><path fill="#fff" d="M0 0h1024v1024H0V0z"/><path fill="#424751" d="M162.5 402.74c6.81-.91 13.94 2.27 18.09 7.7 4 4.91 4.92 11.53 3.32 17.56-2.72 9.24-12.29 15.59-21.89 13.94-9.55-1.39-17.29-10.18-16.7-19.95-.14-9.71 7.75-17.91 17.18-19.25zm-66.04 26.88c8.8-1.99 18.06 1.38 22.38 9.51 4.66 8.33 2.6 18.9-4.83 24.86-7.93 6.57-20.14 5.67-27.03-1.98-5.02-5.21-5.67-12.25-4.29-19.06 1.86-6.53 7.26-11.58 13.77-13.33z"/><path fill="#8bb6bf" d="M224.48 448.71c10.25-2.46 21.42.47 29.06 7.75 7.18 6.67 10.77 16.84 9.64 26.54-1.17 11.32-8.96 21.53-19.57 25.66-5.35 2.32-10.89 2.37-16.61 1.85-14.51-2.04-26.09-14.84-26.61-29.5-1.07-14.91 9.64-28.92 24.09-32.3z"/><path fill="#424751" d="M161.5 458.68c2.01-.59 4.28-.54 6.33-.19 4.51 1.77 6.18 7.01 3.86 11.2-2.51 4.24-8.46 5.22-12.05 1.71-3.89-3.7-2.93-10.26 1.86-12.72zm560.52 4.2c10.11 2.12 18.69 8.92 23.9 17.73-4.09 2.14-8.2 4.26-12.37 6.24-2.66-3.57-5.52-6.81-9.51-8.92-10.81-6.17-25.55-2.59-33.26 6.88-10.11 12.19-9.13 32.88 3.12 43.31 6.82 6.03 16.34 7.98 25.11 5.89 6.13-1.71 10.89-5.8 14.42-10.98 4.31 1.71 8.28 4.05 12.47 6-5.48 9.95-15.67 16.9-26.91 18.46-10.3 1.29-20.82-.36-29.82-5.66-7.96-4.63-14.17-12.02-17.43-20.63-5.14-14.16-3.55-30.65 5.64-42.81 9.99-13.48 28.56-19.1 44.64-15.51zm69.47-.22c2.66-.68 5.2-.2 7.37 1.5 4.06 3.15 3.83 10.32-.58 13.09-4.17 2.88-9.97 1.09-12.05-3.46-2.12-4.57.59-9.71 5.26-11.13zm100.95-.12c3.18-.62 6.21.25 8.24 2.85 2.66 3.08 2.37 7.95-.53 10.78-3.3 3.73-9.66 3.07-12.4-1-3.33-4.59-.83-11.29 4.69-12.63zm-545.76.8c6.04-.41 12.17-.06 18.23-.13 9.22 23.69 18.57 47.33 27.82 71.01 1.63 4.01 3.25 8.02 4.52 12.16-5.48.07-10.95.01-16.43.04-2.11-5.24-3.79-10.72-6.18-15.82-12.61-.37-25.36-.05-37.99-.14-1.99 5.35-3.98 10.71-6.16 15.99-5.47-.07-10.95 0-16.43-.03 1.66-4.99 3.71-9.82 5.61-14.72 8.06-20.57 16.13-41.12 24.19-61.7.87-2.23 1.65-4.57 2.82-6.66zm410.69-.01c4.29-.37 8.65-.09 12.96-.1-.02 27.72-.01 55.45 0 83.18-4.33 0-8.66 0-12.99.06-.12-27.66-.19-55.5.03-83.14zm-628.99 9.37c3.23-2.05 7.78-1.23 10.11 1.8 2.64 3.23 2.13 8.3-1.14 10.9-3.64 2.93-9.14 2.08-11.61-1.92-2.46-3.82-.94-8.36 2.64-10.78z"/><path fill="#fff" d="M355.73 478.03c3.03 8.3 6.26 16.52 9.33 24.81 1.81 4.9 3.87 9.63 5.17 14.71-9.75.06-19.52.08-29.27-.02 4.41-12.3 9.11-24.52 13.73-36.76.35-.91.7-1.83 1.04-2.74z"/><path fill="#424751" d="M508.94 488.07c2.43 1.83 3.58 4.37 5.03 6.96 4.48-5.24 10-9.2 16.96-10.25 5.52-.68 12.04-.03 16.12 4.18 3.74 3.85 4.61 8.85 4.59 14.03 0 14.48.05 28.97-.04 43.45-4.35-.03-8.71-.03-13.06-.01-.09-13.48.06-26.97-.07-40.44-.06-4.31-2.16-8.44-6.65-9.43-7.21-1.52-13.13 2.41-17.25 7.98.2 13.97.1 27.94.05 41.91-4.33-.03-8.67-.03-13.01-.04.01-12.81-.01-25.62.02-38.43 0-3.41-.34-7.15-3.09-9.55-2.76-2.44-6.65-2.53-10.09-1.82-4.67 1.23-7.82 4.31-10.81 7.91.15 13.97.12 27.96.02 41.94-4.32-.05-8.64-.05-12.96-.05.04-20.06-.02-40.12.03-60.17 4.33 0 8.66-.01 13 .01 0 2.4.01 4.79.01 7.19 3.8-3.01 7.18-5.97 11.88-7.53 6.12-2.19 14.03-1.99 19.32 2.16zm-77.1-3.16c6.78.85 12.68 3.8 17.97 8.02-1.79 3.09-3.62 6.16-5.52 9.18-4.17-3.52-8.78-6.18-14.3-6.75-4.29-.36-8.83-.48-12.43 2.24-2.48 1.98-3.4 6.26-.55 8.35 3.67 2.42 8.82 3.09 13.03 4.1 5.77 1.28 12.34 3.05 16.79 7.14 7.22 6.85 6.07 19.88-1.97 25.63-7.08 5.16-16.47 5.64-24.87 4.69-6.79-.98-13.98-3.74-18.95-8.59.92-3.58 3.74-6.7 5.71-9.78 5.78 5.21 13.41 8.56 21.25 8.4 3.51-.12 7.36-1.04 9.6-3.97 1.66-1.78.93-4.61.94-6.86-2.12-1.48-4.19-2.89-6.73-3.58-7.55-2.25-17.54-3.04-23.83-8.1-7.08-5.59-7.19-16.79-1.15-23.17 6.13-6.85 16.37-8.12 25.01-6.95zm154.69.88c9.33-2.57 20.22-1.28 28.14 4.5 8.04 5.71 12.44 15.98 12.13 25.71.24 8.06-2.27 16.05-7.7 22.08-10.04 11.7-29.95 13.01-42.07 3.95-13.44-10.1-15.77-30.88-6.63-44.56 3.72-5.73 9.58-9.84 16.13-11.68zm262.45-1.15c5.82-.46 12.43.41 16.83 4.61 3.79 3.67 5.02 8.59 5 13.72 0 14.49.01 28.98-.02 43.47-4.36-.02-8.72-.02-13.08-.06.04-12.8.03-25.61.01-38.41.02-4.24-1.24-8.66-5.42-10.52-7.42-3.27-17.5.12-21.76 6.91-.42 13.92-.05 28.1-.17 42.06-4.34 0-8.68-.01-13.02.02-.1-20.06-.01-40.13-.05-60.19 4.34-.01 8.67-.02 13-.03.02 2.58.12 5.16.13 7.74 5.01-5.18 11.29-8.66 18.55-9.32zm108.27 1.99c4.31 1.79 8.85 4.78 11.08 9.01-2.84 2.51-5.63 5.05-8.58 7.41-3.32-3.95-7.43-6.71-12.76-6.81-6.96-.5-13.46 2.99-16.7 9.18-4.05 7.92-3.24 18.78 2.77 25.53 4.96 5.35 13.14 6.64 19.79 3.99 2.83-1.17 4.98-3.65 7.12-5.77 2.83 2.73 5.66 5.45 8.6 8.06-3.95 4.89-8.96 8.44-15.15 9.83-7.61 1.57-15.96 1.07-22.96-2.53-7.25-3.6-12.57-10.27-14.85-18-1.49-4.65-1.52-9.7-1.2-14.54.74-8.61 5.39-17.11 12.6-21.99 8.62-5.99 20.5-7.04 30.24-3.37zm-69.48-.39c4.34-.01 8.69-.01 13.03.01-.01 20.06.05 40.12-.03 60.18-4.34-.01-8.68-.01-13.03-.01.06-20.06.01-40.12.03-60.18zm-100.64.06l.7-.01c4.11-.08 8.22-.07 12.34-.05.01 20.06.03 40.12-.01 60.18-4.33-.01-8.66-.01-12.99.03-.04-20.05.03-40.1-.04-60.15zm-718.68 7.27c7.05-2.66 15.23-.88 20.61 4.37 7.55 6.96 7.92 20.44.56 27.67-5.65 6.16-15.1 7.93-22.63 4.35-6.87-3.02-11.61-10.44-11.35-17.96-.22-8.14 5.25-15.64 12.81-18.43z"/><path fill="#8bb6bf" d="M158.42 493.48c6.62-2.37 14.15-.85 19.5 3.64 6.48 5.55 8.52 15.08 5.14 22.87-3.1 7.43-11.04 12.33-19.07 11.76-9.91-.28-18.55-8.74-18.67-18.73-.52-8.69 4.81-16.79 13.1-19.54z"/><path fill="#fff" d="M590.19 497.12c6.54-2.18 14.27-.46 18.61 5.09 5.9 7.64 6.02 19.31.59 27.22-3.78 5.32-9.95 7.68-16.37 6.62-7.15-1.05-12.21-7-13.72-13.83-2.47-9.27 1.03-21.7 10.89-25.1z"/><path fill="#424751" d="M115.65 504.77c3.81-1.17 7.27-.23 9.44 3.19 2.94 3.99.64 9.57-3.61 11.41-1.83.53-4.11.55-5.93-.03-2.36-1.2-4.29-3.71-4.81-6.31-.48-3.37 1.98-6.82 4.91-8.26zm13.9 32.98c4.4-1.27 8.16.26 10.14 4.37 2.36 5-2.25 11.3-7.71 10.57-4.13.18-7.2-3.89-7.38-7.71.08-3.09 2.31-5.82 4.95-7.23zm31.92 13.8c5.03-3.01 11.97 1.71 11.2 7.46-.05 5.79-7.69 9.6-12.27 5.66-4.71-3.18-3.99-10.68 1.07-13.12zm-63.29 4.5c5.58-.93 11.37.46 15.77 4.05 6.68 5.35 9.31 14.86 5.9 22.8-3.7 9.66-15.15 14.75-24.83 11.15-9.66-3.09-15.47-14.21-12.46-23.89 2.04-7.39 8.08-12.78 15.62-14.11zm61.34 26.71c6.85-1.5 13.93-.41 19.01 4.72 7.26 6.58 8.22 18.48 2.16 26.16-5.37 7.13-15.34 10.07-23.55 6.2-8.6-3.71-13.22-12.63-11.56-21.83 1.27-7.21 6.94-13.25 13.94-15.25z"/></svg>